<mxfile host="app.diagrams.net" modified="2024-03-10T22:11:54.049Z" agent="Mozilla/5.0 (Windows NT 10.0; Win64; x64) AppleWebKit/537.36 (KHTML, like Gecko) Chrome/122.0.0.0 Safari/537.36 Edg/122.0.0.0" etag="4G-NVt2fjo_Y9BGwVXNX" version="24.0.4" type="device">
  <diagram name="Página-1" id="YAUZkyyK2YygBbeyj1md">
    <mxGraphModel dx="1242" dy="569" grid="1" gridSize="10" guides="1" tooltips="1" connect="1" arrows="1" fold="1" page="1" pageScale="1" pageWidth="827" pageHeight="1169" math="0" shadow="0">
      <root>
        <mxCell id="0" />
        <mxCell id="1" parent="0" />
        <mxCell id="8eGjWpf0x-H0c46KAk5r-3" value="" style="edgeStyle=orthogonalEdgeStyle;rounded=0;orthogonalLoop=1;jettySize=auto;html=1;" edge="1" parent="1" source="8eGjWpf0x-H0c46KAk5r-1" target="8eGjWpf0x-H0c46KAk5r-2">
          <mxGeometry relative="1" as="geometry" />
        </mxCell>
        <mxCell id="8eGjWpf0x-H0c46KAk5r-1" value="INICIO" style="ellipse;whiteSpace=wrap;html=1;fillColor=#5EA9FF;" vertex="1" parent="1">
          <mxGeometry x="354" y="20" width="120" height="80" as="geometry" />
        </mxCell>
        <mxCell id="8eGjWpf0x-H0c46KAk5r-5" value="" style="edgeStyle=orthogonalEdgeStyle;rounded=0;orthogonalLoop=1;jettySize=auto;html=1;" edge="1" parent="1" source="8eGjWpf0x-H0c46KAk5r-2" target="8eGjWpf0x-H0c46KAk5r-4">
          <mxGeometry relative="1" as="geometry" />
        </mxCell>
        <mxCell id="8eGjWpf0x-H0c46KAk5r-2" value="&quot;Solicitar un numero&quot;" style="shape=parallelogram;perimeter=parallelogramPerimeter;whiteSpace=wrap;html=1;fixedSize=1;fillColor=#3CFF2E;" vertex="1" parent="1">
          <mxGeometry x="316" y="160" width="196" height="60" as="geometry" />
        </mxCell>
        <mxCell id="8eGjWpf0x-H0c46KAk5r-7" value="" style="edgeStyle=orthogonalEdgeStyle;rounded=0;orthogonalLoop=1;jettySize=auto;html=1;" edge="1" parent="1" source="8eGjWpf0x-H0c46KAk5r-4" target="8eGjWpf0x-H0c46KAk5r-6">
          <mxGeometry relative="1" as="geometry" />
        </mxCell>
        <mxCell id="8eGjWpf0x-H0c46KAk5r-9" value="" style="edgeStyle=orthogonalEdgeStyle;rounded=0;orthogonalLoop=1;jettySize=auto;html=1;" edge="1" parent="1" source="8eGjWpf0x-H0c46KAk5r-4" target="8eGjWpf0x-H0c46KAk5r-8">
          <mxGeometry relative="1" as="geometry" />
        </mxCell>
        <mxCell id="8eGjWpf0x-H0c46KAk5r-4" value="¿El numero es menor que 0?" style="rhombus;whiteSpace=wrap;html=1;fillColor=#474D0A;" vertex="1" parent="1">
          <mxGeometry x="322" y="280" width="184" height="130" as="geometry" />
        </mxCell>
        <mxCell id="8eGjWpf0x-H0c46KAk5r-11" value="" style="edgeStyle=orthogonalEdgeStyle;rounded=0;orthogonalLoop=1;jettySize=auto;html=1;" edge="1" parent="1" source="8eGjWpf0x-H0c46KAk5r-6" target="8eGjWpf0x-H0c46KAk5r-10">
          <mxGeometry relative="1" as="geometry" />
        </mxCell>
        <mxCell id="8eGjWpf0x-H0c46KAk5r-6" value="SI" style="shape=parallelogram;perimeter=parallelogramPerimeter;whiteSpace=wrap;html=1;fixedSize=1;fillColor=#3CFF2E;" vertex="1" parent="1">
          <mxGeometry x="90" y="315" width="120" height="60" as="geometry" />
        </mxCell>
        <mxCell id="8eGjWpf0x-H0c46KAk5r-14" value="" style="edgeStyle=orthogonalEdgeStyle;rounded=0;orthogonalLoop=1;jettySize=auto;html=1;" edge="1" parent="1" source="8eGjWpf0x-H0c46KAk5r-8" target="8eGjWpf0x-H0c46KAk5r-12">
          <mxGeometry relative="1" as="geometry" />
        </mxCell>
        <mxCell id="8eGjWpf0x-H0c46KAk5r-8" value="NO" style="shape=parallelogram;perimeter=parallelogramPerimeter;whiteSpace=wrap;html=1;fixedSize=1;fillColor=#3CFF2E;" vertex="1" parent="1">
          <mxGeometry x="618" y="315" width="120" height="60" as="geometry" />
        </mxCell>
        <mxCell id="8eGjWpf0x-H0c46KAk5r-13" style="edgeStyle=orthogonalEdgeStyle;rounded=0;orthogonalLoop=1;jettySize=auto;html=1;entryX=0;entryY=0.5;entryDx=0;entryDy=0;" edge="1" parent="1" source="8eGjWpf0x-H0c46KAk5r-10" target="8eGjWpf0x-H0c46KAk5r-12">
          <mxGeometry relative="1" as="geometry" />
        </mxCell>
        <mxCell id="8eGjWpf0x-H0c46KAk5r-10" value="Generar ValueError:&lt;div&gt;El numero ingresado es menor que cero&lt;/div&gt;" style="shape=parallelogram;perimeter=parallelogramPerimeter;whiteSpace=wrap;html=1;fixedSize=1;fillColor=#3CFF2E;" vertex="1" parent="1">
          <mxGeometry x="45" y="470" width="210" height="60" as="geometry" />
        </mxCell>
        <mxCell id="8eGjWpf0x-H0c46KAk5r-12" value="FIN" style="ellipse;whiteSpace=wrap;html=1;fillColor=#5EA9FF;" vertex="1" parent="1">
          <mxGeometry x="610" y="460" width="120" height="80" as="geometry" />
        </mxCell>
      </root>
    </mxGraphModel>
  </diagram>
</mxfile>
